<?xml version="1.0" encoding="utf-8"?>
<!-- Generator: $$$/GeneralStr/196=Adobe Illustrator 27.6.0, SVG Export Plug-In . SVG Version: 6.00 Build 0)  -->
<svg version="1.1" xmlns="http://www.w3.org/2000/svg" xmlns:xlink="http://www.w3.org/1999/xlink" x="0px" y="0px"
	 viewBox="0 0 2560 1440" style="enable-background:new 0 0 2560 1440;" xml:space="preserve">
<style type="text/css">
	.st0{fill:#363636;}
	.st1{fill:#CCCCCC;}
	.st2{fill:#F2F2F2;}
	.st3{fill:#355D3A;}
	.st4{fill:none;stroke:#93CCFB;stroke-width:1.8207;stroke-miterlimit:10;}
	.st5{fill:none;stroke:#93CCFB;stroke-width:3.6414;stroke-miterlimit:10;}
	.st6{fill:#FFFFFF;}
	.st7{fill:#D43D00;}
	.st8{fill:#AAAAAA;}
	.st9{fill:#646464;}
	.st10{fill:#27785F;}
	.st11{fill:#318867;}
	.st12{fill:#1D5E4B;}
	.st13{fill:#296A55;}
	.st14{fill:#267C5F;}
	.st15{fill:#298064;}
	.st16{fill:none;stroke:#296A55;stroke-width:0.9103;stroke-miterlimit:10;}
	.st17{fill:none;stroke:#FFFFFF;stroke-miterlimit:10;}
	.st18{fill:#A3ACAD;}
	.st19{fill:#555A57;}
	.st20{fill:#464C48;}
	.st21{fill:#7F8C8D;}
	.st22{fill:#2A312D;}
	.st23{fill:#D6DADB;}
	.st24{fill:#373D3A;}
	.st25{fill:#797D7B;}
	.st26{fill:#666B68;}
	.st27{fill:#BCC3C4;}
	.st28{fill:#ECF1F1;}
	.st29{fill:none;stroke:#ECF1F1;stroke-width:1.6067;stroke-miterlimit:3.864;}
	.st30{fill:none;stroke:#FFFFFF;stroke-width:1.8676;stroke-miterlimit:3.864;}
	.st31{fill:none;stroke:#FFFFFF;stroke-width:1.8676;stroke-linejoin:round;}
	.st32{fill:#FFFFFF;stroke:#FFFFFF;stroke-width:1.6689;stroke-miterlimit:10;}
	.st33{fill:none;stroke:#FFFFFF;stroke-width:1.8676;stroke-linecap:round;stroke-miterlimit:3.864;}
	.st34{fill:none;stroke:#ECF1F1;stroke-width:1.0042;stroke-miterlimit:3.8637;}
	.st35{fill-rule:evenodd;clip-rule:evenodd;fill:#ECF1F1;}
	.st36{fill:none;stroke:#ECF1F1;stroke-width:1.1307;stroke-miterlimit:3.864;}
	.st37{fill:none;stroke:#FFFFFF;stroke-width:1.8672;stroke-miterlimit:3.864;}
	.st38{fill:none;stroke:#93CCFB;stroke-miterlimit:10;}
	.st39{fill:none;stroke:#93CCFB;stroke-width:2;stroke-miterlimit:10;}
	.st40{fill:none;stroke:#296A55;stroke-width:0.5;stroke-miterlimit:10;}
	.st41{fill:#FF0000;}
	.st42{fill:#DEF154;}
	.st43{fill:#0015CF;}
	.st44{fill:none;stroke:#DEF154;stroke-width:3;stroke-miterlimit:10;}
	.st45{fill:none;stroke:#FF0000;stroke-width:3;stroke-miterlimit:10;}
	.st46{fill:none;stroke:#0015CF;stroke-width:3;}
	.st47{fill-rule:evenodd;clip-rule:evenodd;fill:#FFFFFF;}
</style>
<g id="Livello_1">
	<rect class="st0" width="2560" height="1440"/>
	<g>
		<g>
			<polygon class="st1" points="887.2,1006.6 913.7,1006.6 920.5,1000 978.7,1000 978.7,1016.1 1004.8,1016.1 1004.8,1000 
				1555.2,1000 1555.2,1016.1 1581.3,1016.1 1581.3,1000 1639.5,1000 1645.8,1006.7 1672.5,1006.7 1716.5,1006.7 1755,1006.7 
				1755,849.8 1625.6,720.4 933.5,721.4 805,849.6 805,1006.6 843,1006.6 			"/>
			<path class="st2" d="M1645.8,1006.7l-6.3-6.6h-58.2v16h-26.1v-16h-550.4v16h-26.1v-16h-58.2l-6.9,6.5H805v61.6h105.6l32.2-32.2
				h62.3l32.1,32.1h14.6v-44.6l26.1,0c6.7,0,12.2,5.5,12.2,12.2c0,5.8-4.1,10.7-9.5,11.9l0,0v20.7h35l12-12v-23.6l9.2-9.2h286.4
				l9.2,9.2v23.6l12,12h35v-20.7h0c-5.4-1.2-9.5-6.1-9.5-11.9c0-6.7,5.5-12.2,12.2-12.2l26.1,0v44.6h14.6l32.1-32.1h62.3l32.2,32.2
				H1755v-61.5H1645.8z"/>
		</g>
		<path class="st2" d="M1755,1000h-115.5v-56.5l-13-13V721.4l-87.9-87.7v-3.2c0-142.8-115.8-258.6-258.6-258.6
			s-258.6,115.8-258.6,258.6v3.2l-87.9,87.7v209.2l-13,13v56.5H805"/>
		<path class="st3" d="M1555.2,1016.1h26.1v-16h22.9v-21.6h17.6v-26.5h-17.5V740.2l-22.5-22.6v-16.2h-26.3v15.7h-19.5v-36.7
			l-15.1-37.5v-6.9c0-133-107.8-240.8-240.8-240.8s-240.8,107.8-240.8,240.8v6.9l-15.1,37.5v36.7h-19.5v-15.7h-26.3l0,16.2
			l-22.5,22.6v211.8h-17.5v26.5h17.6v21.6h22.9v16h26.1v-16h550.4V1016.1z"/>
		<circle class="st5" cx="1280" cy="636.1" r="135"/>
		<g>
			<circle class="st0" cx="874.5" cy="882.7" r="22.6"/>
			<circle class="st0" cx="1685.5" cy="882.7" r="22.6"/>
		</g>
		<g>
			<g>
				<path class="st6" d="M1379.8,790.8h13.1c3.6,0,6.1,1.1,7.6,3.2c0.9,1.2,1.3,2.7,1.3,4.3c0,1.9-0.5,3.5-1.6,4.7
					c-0.6,0.6-1.4,1.2-2.4,1.8c1.6,0.6,2.7,1.3,3.5,2c1.4,1.3,2,3.1,2,5.5c0,2-0.6,3.7-1.8,5.3c-1.8,2.4-4.8,3.5-8.8,3.5h-12.9
					V790.8z M1391.4,803.6c1.7,0,3.1-0.2,4.1-0.7c1.5-0.8,2.3-2.1,2.3-4.1c0-2-0.8-3.3-2.4-4c-0.9-0.4-2.3-0.6-4.1-0.6h-7.4v9.4
					H1391.4z M1392.8,817.6c2.5,0,4.3-0.7,5.4-2.2c0.7-0.9,1-2,1-3.3c0-2.2-1-3.7-3-4.5c-1.1-0.4-2.4-0.6-4.2-0.6h-8.2v10.7H1392.8z
					"/>
				<path class="st6" d="M1406.6,805.6h12.2v3.8h-12.2V805.6z"/>
			</g>
			<g>
				<path class="st6" d="M1441.4,790.8h4.6l11,30.3h-4.5l-3.1-9.1h-12l-3.3,9.1h-4.2L1441.4,790.8z M1448.1,808.7l-4.6-13.4
					l-4.9,13.4H1448.1z"/>
				<path class="st6" d="M1459.4,810.2v-3.5h9v-9h3.5v9h9v3.5h-9v9h-3.5v-9H1459.4z"/>
			</g>
		</g>
		<g>
			<g>
				<path class="st6" d="M1504.8,805.6h12.2v3.8h-12.2V805.6z"/>
			</g>
			<g>
				<path class="st6" d="M1550.2,810.2v-3.5h9v-9h3.5v9h9v3.5h-9v9h-3.5v-9H1550.2z"/>
			</g>
		</g>
		<circle class="st2" cx="1280" cy="636.1" r="135"/>
		<circle class="st0" cx="1280" cy="636.1" r="112.9"/>
		<g>
			
				<rect x="955.7" y="802.4" transform="matrix(-1 -4.397828e-11 4.397828e-11 -1 2008.5554 1754.3345)" class="st7" width="97.1" height="149.6"/>
			<g>
				<path class="st6" d="M978,925.2v-2.6c2.5-0.2,4.2-0.6,5.1-1.2c1-0.6,1.7-1.9,2.2-4h2.7v26.9h-3.6v-19.1H978z"/>
			</g>
			<g>
				<path class="st6" d="M1015.5,938.2c0.8-1.7,2.5-3.3,4.9-4.7l3.6-2.1c1.6-0.9,2.8-1.7,3.4-2.4c1-1,1.5-2.2,1.5-3.6
					c0-1.6-0.5-2.8-1.4-3.8c-0.9-0.9-2.2-1.4-3.8-1.4c-2.3,0-3.9,0.9-4.8,2.6c-0.5,0.9-0.7,2.3-0.8,3.9h-3.5c0-2.4,0.5-4.3,1.3-5.8
					c1.5-2.6,4.1-3.9,7.8-3.9c3.1,0,5.4,0.8,6.8,2.5c1.4,1.7,2.1,3.5,2.1,5.6c0,2.2-0.8,4-2.3,5.5c-0.9,0.9-2.5,2-4.7,3.2l-2.6,1.4
					c-1.2,0.7-2.2,1.3-2.9,1.9c-1.3,1.1-2.1,2.3-2.4,3.6h14.8v3.2H1014C1014.1,942,1014.6,940,1015.5,938.2z"/>
			</g>
			<g>
				<rect x="973.4" y="850.7" class="st1" width="23.3" height="53.8"/>
				
					<rect x="973.4" y="881.2" transform="matrix(-1.836970e-16 1 -1 -1.836970e-16 1874.2267 -95.789)" class="st6" width="23.3" height="16"/>
			</g>
			<g>
				
					<rect x="1011.9" y="850.7" transform="matrix(-1 -1.224647e-16 1.224647e-16 -1 2047.0956 1755.1598)" class="st1" width="23.3" height="53.8"/>
				
					<rect x="1011.9" y="881.2" transform="matrix(6.123234e-17 -1 1 6.123234e-17 134.3287 1912.7665)" class="st6" width="23.3" height="16"/>
			</g>
			<g>
				<path class="st6" d="M1001.1,818.7c1.8,2.5,2.8,5.6,2.8,9.4c0,4.1-1.1,7.6-3.2,10.3c-2.5,3.2-6,4.8-10.5,4.8
					c-4.3,0-7.6-1.4-10.1-4.2c-2.2-2.7-3.3-6.2-3.3-10.3c0-3.7,0.9-7,2.8-9.6c2.4-3.4,5.9-5.1,10.6-5.1
					C995.1,814,998.7,815.6,1001.1,818.7z M997.8,836.4c1.5-2.4,2.2-5.1,2.2-8.2c0-3.3-0.9-5.9-2.6-7.9c-1.7-2-4-3-7-3
					c-2.9,0-5.2,1-7,3c-1.8,2-2.7,4.9-2.7,8.7c0,3.1,0.8,5.7,2.3,7.8c1.6,2.1,4.1,3.2,7.6,3.2C993.9,839.9,996.3,838.7,997.8,836.4z
					"/>
				<path class="st6" d="M1008.3,814.7h4.4l13.8,22.4v-22.4h3.6v27.7h-4.2l-14-22.4v22.4h-3.6V814.7z"/>
			</g>
		</g>
		<rect x="839.4" y="1006.6" class="st8" width="44" height="15.4"/>
		<rect x="839.4" y="1052.2" class="st1" width="44" height="16"/>
		<rect x="839.4" y="1022" class="st9" width="44" height="30.2"/>
		<rect x="809.4" y="1017.4" class="st8" width="30" height="28.2"/>
		<rect x="883.5" y="1017.4" class="st1" width="30" height="28.2"/>
		
			<rect x="1676" y="1006.6" transform="matrix(-1 -4.489221e-11 4.489221e-11 -1 3396.0918 2028.5498)" class="st8" width="44" height="15.4"/>
		
			<rect x="1676" y="1052.2" transform="matrix(-1 -4.489221e-11 4.489221e-11 -1 3396.0918 2120.3386)" class="st1" width="44" height="16"/>
		
			<rect x="1676" y="1022" transform="matrix(-1 -4.489221e-11 4.489221e-11 -1 3396.0918 2074.1548)" class="st9" width="44" height="30.2"/>
		
			<rect x="1720.1" y="1017.4" transform="matrix(-1 -4.486779e-11 4.486779e-11 -1 3470.177 2063.0183)" class="st8" width="30" height="28.2"/>
		
			<rect x="1646" y="1017.4" transform="matrix(-1 -4.492863e-11 4.492863e-11 -1 3322.0063 2063.0183)" class="st1" width="30" height="28.2"/>
		<g>
			<rect x="1214.1" y="841" class="st10" width="127.8" height="110.9"/>
			<line class="st4" x1="1222" y1="843.8" x2="1329.9" y2="843.8"/>
			<line class="st4" x1="1222.2" y1="900.1" x2="1329.6" y2="900.1"/>
			<rect x="1222" y="831.6" class="st11" width="107.9" height="169.6"/>
			<g>
				<g>
					<rect x="1238.1" y="932.4" class="st12" width="25.2" height="40.8"/>
					<polygon class="st13" points="1238.1,932.4 1228.9,916.4 1272.5,916.4 1263.3,932.4 					"/>
					<polygon class="st14" points="1238.1,973.2 1228.9,989.2 1272.5,989.2 1263.3,973.2 					"/>
					<polygon class="st10" points="1263.3,932.4 1272.5,916.4 1272.5,989.2 1263.3,973.2 					"/>
					<polygon class="st15" points="1238.1,932.4 1228.9,916.4 1228.9,989.2 1238.1,973.2 					"/>
				</g>
				<g>
					<rect x="1288.5" y="932.4" class="st12" width="25.2" height="40.8"/>
					<polygon class="st13" points="1288.5,932.4 1279.3,916.4 1322.9,916.4 1313.7,932.4 					"/>
					<polygon class="st14" points="1288.5,973.2 1279.3,989.2 1322.9,989.2 1313.7,973.2 					"/>
					<polygon class="st10" points="1313.7,932.4 1322.9,916.4 1322.9,989.2 1313.7,973.2 					"/>
					<polygon class="st15" points="1288.5,932.4 1279.3,916.4 1279.3,989.2 1288.5,973.2 					"/>
				</g>
			</g>
		</g>
		<g>
			
				<rect x="1066.2" y="841" transform="matrix(-1 -4.489798e-11 4.489798e-11 -1 2260.2617 1792.984)" class="st10" width="127.8" height="110.9"/>
			<line class="st4" x1="1186.1" y1="843.8" x2="1078.2" y2="843.8"/>
			<line class="st4" x1="1185.9" y1="900.1" x2="1078.5" y2="900.1"/>
			
				<rect x="1078.2" y="831.6" transform="matrix(-1 -4.492463e-11 4.492463e-11 -1 2264.3691 1832.8315)" class="st11" width="107.9" height="169.6"/>
			<g>
				<g>
					
						<rect x="1144.8" y="932.4" transform="matrix(-1 -4.476698e-11 4.476698e-11 -1 2314.7874 1905.5923)" class="st12" width="25.2" height="40.8"/>
					<polygon class="st13" points="1170,932.4 1179.2,916.4 1135.6,916.4 1144.8,932.4 					"/>
					<polygon class="st14" points="1170,973.2 1179.2,989.2 1135.6,989.2 1144.8,973.2 					"/>
					<polygon class="st10" points="1144.8,932.4 1135.6,916.4 1135.6,989.2 1144.8,973.2 					"/>
					<polygon class="st15" points="1170,932.4 1179.2,916.4 1179.2,989.2 1170,973.2 					"/>
				</g>
				<g>
					
						<rect x="1094.4" y="932.4" transform="matrix(-1 -4.498369e-11 4.498369e-11 -1 2213.9509 1905.5923)" class="st12" width="25.2" height="40.8"/>
					<polygon class="st13" points="1119.6,932.4 1128.8,916.4 1085.2,916.4 1094.4,932.4 					"/>
					<polygon class="st14" points="1119.6,973.2 1128.8,989.2 1085.2,989.2 1094.4,973.2 					"/>
					<polygon class="st10" points="1094.4,932.4 1085.2,916.4 1085.2,989.2 1094.4,973.2 					"/>
					<polygon class="st15" points="1119.6,932.4 1128.8,916.4 1128.8,989.2 1119.6,973.2 					"/>
				</g>
			</g>
		</g>
		<g>
			<g>
				<rect x="1368.5" y="841" class="st10" width="115.8" height="110.9"/>
				<line class="st4" x1="1376.4" y1="843.8" x2="1484.3" y2="843.8"/>
				<line class="st4" x1="1376.6" y1="900.1" x2="1484" y2="900.1"/>
				<rect x="1376.4" y="831.6" class="st11" width="107.9" height="169.6"/>
				<g>
					<g>
						<rect x="1392.5" y="932.4" class="st12" width="25.2" height="40.8"/>
						<polygon class="st13" points="1392.5,932.4 1383.4,916.4 1426.9,916.4 1417.7,932.4 						"/>
						<polygon class="st14" points="1392.5,973.2 1383.4,989.2 1426.9,989.2 1417.7,973.2 						"/>
						<polygon class="st10" points="1417.7,932.4 1426.9,916.4 1426.9,989.2 1417.7,973.2 						"/>
						<polygon class="st15" points="1392.5,932.4 1383.4,916.4 1383.4,989.2 1392.5,973.2 						"/>
					</g>
					<g>
						<rect x="1443" y="932.4" class="st12" width="25.2" height="40.8"/>
						<polygon class="st13" points="1443,932.4 1433.8,916.4 1477.3,916.4 1468.2,932.4 						"/>
						<polygon class="st14" points="1443,973.2 1433.8,989.2 1477.3,989.2 1468.2,973.2 						"/>
						<polygon class="st10" points="1468.2,932.4 1477.3,916.4 1477.3,989.2 1468.2,973.2 						"/>
						<polygon class="st15" points="1443,932.4 1433.8,916.4 1433.8,989.2 1443,973.2 						"/>
					</g>
				</g>
			</g>
			<g>
				<rect x="1484.3" y="841" class="st10" width="119.9" height="110.9"/>
				<line class="st4" x1="1484.3" y1="843.8" x2="1592.2" y2="843.8"/>
				<line class="st4" x1="1484.5" y1="900.1" x2="1591.9" y2="900.1"/>
				<rect x="1484.3" y="831.6" class="st11" width="107.9" height="169.6"/>
				<g>
					<g>
						<rect x="1500.5" y="932.4" class="st12" width="25.2" height="40.8"/>
						<polygon class="st13" points="1500.5,932.4 1491.3,916.4 1534.8,916.4 1525.6,932.4 						"/>
						<polygon class="st14" points="1500.5,973.2 1491.3,989.2 1534.8,989.2 1525.6,973.2 						"/>
						<polygon class="st10" points="1525.6,932.4 1534.8,916.4 1534.8,989.2 1525.6,973.2 						"/>
						<polygon class="st15" points="1500.5,932.4 1491.3,916.4 1491.3,989.2 1500.5,973.2 						"/>
					</g>
					<g>
						<rect x="1550.9" y="932.4" class="st12" width="25.2" height="40.8"/>
						<polygon class="st13" points="1550.9,932.4 1541.7,916.4 1585.2,916.4 1576.1,932.4 						"/>
						<polygon class="st14" points="1550.9,973.2 1541.7,989.2 1585.2,989.2 1576.1,973.2 						"/>
						<polygon class="st10" points="1576.1,932.4 1585.2,916.4 1585.2,989.2 1576.1,973.2 						"/>
						<polygon class="st15" points="1550.9,932.4 1541.7,916.4 1541.7,989.2 1550.9,973.2 						"/>
					</g>
				</g>
			</g>
			<line class="st16" x1="1484.3" y1="831.6" x2="1484.3" y2="1001.2"/>
		</g>
		<line class="st16" x1="1186.2" y1="846" x2="1078.3" y2="846"/>
		<line class="st16" x1="1186.1" y1="902.3" x2="1078.2" y2="902.3"/>
		<line class="st16" x1="1330.1" y1="846" x2="1222" y2="846"/>
		<line class="st16" x1="1329.9" y1="902.3" x2="1222" y2="902.3"/>
		<line class="st16" x1="1592.2" y1="846" x2="1376.4" y2="846"/>
		<line class="st16" x1="1592.2" y1="902.3" x2="1376.4" y2="902.3"/>
	</g>
</g>
<g id="Livello_2">
</g>
</svg>
